<svg width="246" height="717" viewBox="0 0 246 717" fill="none" xmlns="http://www.w3.org/2000/svg">
<rect width="124" height="372" rx="57" fill="#FD7F3C"/>
<path d="M124.5 496.5C124.272 626.354 -7.62939e-06 632 -7.62939e-06 632L-7.62939e-06 361C-7.62939e-06 361 124.728 366.646 124.5 496.5Z" fill="#379A48"/>
<path d="M124.5 135.5C124.728 5.64584 245.209 0 245.209 0L245.209 271C245.209 271 124.272 265.354 124.5 135.5Z" fill="#6E8CED"/>
<path d="M124 326C124 295.624 148.624 271 179 271H245V392H124V326Z" fill="#BB8CF5"/>
<path d="M179 633C148.624 633 124 608.376 124 578V512H245V633H179Z" fill="#FEC21E"/>
<ellipse cx="184.5" cy="452" rx="60.5" ry="60" fill="#F5767A"/>
<path d="M0 668C0 648.67 15.67 633 35 633H245V677C245 696.33 229.33 712 210 712H0V668Z" fill="#05CBD4"/>
</svg>
