<svg width="187" height="27" viewBox="0 0 187 27" fill="none" xmlns="http://www.w3.org/2000/svg">
<path d="M32.963 8.021H28.4286V26.9961H32.963V8.021Z" fill="#888888"/>
<path d="M32.963 0H28.4286V4.12568H32.963V0Z" fill="#888888"/>
<path d="M63.9194 26.9962H59.3851V0H63.9194V26.9962ZM81.4641 26.9962H74.9233L65.7834 18.1145C65.2733 17.6464 65.0333 17.0614 65.067 16.3593C65.0895 16.0309 65.1758 15.7251 65.3183 15.4383C65.4646 15.1514 65.6634 14.9098 65.9184 14.7098L74.2032 7.98714H81.4604L70.7865 16.6424L81.4604 27L81.4641 26.9962Z" fill="#888888"/>
<path d="M162.669 20.711C162.669 21.3413 162.557 22.0245 162.339 22.7568C162.118 23.4891 161.762 24.1685 161.267 24.7914C160.772 25.4179 160.127 25.9426 159.332 26.3616C158.536 26.7844 157.565 26.992 156.429 26.992H148.249C147.623 26.992 146.944 26.8825 146.216 26.6598C145.489 26.4371 144.813 26.0785 144.195 25.5803C143.572 25.082 143.051 24.4328 142.634 23.6325C142.214 22.8323 142.008 21.8585 142.008 20.711C142.008 20.0806 142.117 19.3936 142.338 18.6576C142.559 17.9215 142.916 17.2383 143.411 16.6117C143.906 15.9851 144.551 15.4604 145.346 15.0415C146.141 14.6187 147.109 14.4111 148.249 14.4111H156.429V18.7632H148.249C147.634 18.7632 147.157 18.952 146.82 19.3332C146.482 19.7145 146.314 20.1863 146.314 20.7449C146.314 21.3413 146.509 21.8056 146.899 22.1416C147.289 22.4737 147.75 22.6436 148.286 22.6436H156.432C157.047 22.6436 157.524 22.4548 157.861 22.0812C158.199 21.7075 158.368 21.2394 158.368 20.677V14.3054C158.368 13.709 158.184 13.2334 157.82 12.8824C157.456 12.5313 156.991 12.3539 156.432 12.3539H146.475V8.01685H156.432C157.059 8.01685 157.738 8.12631 158.465 8.34901C159.193 8.57172 159.868 8.93031 160.487 9.42856C161.109 9.92681 161.631 10.5761 162.047 11.3763C162.467 12.1765 162.673 13.1541 162.673 14.2978V20.7034L162.669 20.711Z" fill="#888888"/>
<path d="M174.825 26.9962H172.803C172.151 26.9962 171.457 26.8868 170.718 26.6641C169.979 26.4414 169.289 26.0752 168.651 25.5656C168.01 25.0561 167.481 24.3955 167.065 23.584C166.645 22.7724 166.439 21.7721 166.439 20.5907V0H170.973V20.5907C170.973 21.1531 171.149 21.5985 171.498 21.9344C171.847 22.2704 172.282 22.4365 172.807 22.4365H174.829V27L174.825 26.9962Z" fill="#888888"/>
<path d="M3.25575 17.4952C3.96084 17.4952 4.53092 16.9214 4.53092 16.2118V8.23222C4.53092 7.63583 4.68844 7.1791 5.00348 6.86203C5.31852 6.54496 5.77607 6.38643 6.3799 6.38643H16.6C17.1925 6.38643 17.7176 6.48457 18.1714 6.67707C18.6252 6.86958 19.0115 7.13758 19.3303 7.4773C19.6491 7.81701 19.9041 8.22468 20.0879 8.70783C20.2754 9.18721 20.3954 9.71566 20.4554 10.2894V12.3617C20.4554 12.9467 20.3617 13.4714 20.1779 13.9319C19.9904 14.3924 19.7316 14.7888 19.3941 15.1172C19.0565 15.4456 18.6515 15.706 18.1827 15.8985C17.7138 16.091 17.185 16.2118 16.6037 16.2571H6.3499C6.3499 16.9441 6.90122 17.499 7.58381 17.499H22.4995C23.3208 17.499 23.9621 16.695 24.2659 16.1137C24.4872 15.6871 24.4572 15.6494 24.611 15.1511C24.866 14.332 24.9935 13.4035 24.9935 12.3617V10.2894C24.9935 9.72698 24.9298 9.12681 24.8022 8.4889C24.6747 7.85099 24.4685 7.22062 24.1834 6.59403C23.8984 5.96744 23.5383 5.36727 23.1033 4.79353C22.6682 4.21978 22.1394 3.71398 21.5168 3.27612C20.8942 2.83826 20.1779 2.48722 19.3641 2.223C18.5502 1.95877 17.6313 1.82666 16.6075 1.82666H6.35365C5.72732 1.82666 5.04098 1.9399 4.29464 2.17015C3.54829 2.40041 2.86195 2.76277 2.22812 3.26857C1.59429 3.7706 1.06547 4.43116 0.641671 5.25026C0.217867 6.06936 0.00408936 7.06586 0.00408936 8.236V17.499H3.26326L3.25575 17.4952Z" fill="#888888"/>
<path d="M0 19.0991V26.9957H4.53433V20.3825C4.53433 19.6729 3.96425 19.0991 3.25916 19.0991H0Z" fill="#888888"/>
<path d="M6.34583 20.3825V20.8166H16.5996C17.1585 20.8166 17.7548 20.7524 18.3886 20.6241C19.0224 20.4957 19.6488 20.2919 20.2713 20.0088C20.8002 19.771 21.3102 19.4577 21.8015 19.0991H7.62099C6.9159 19.0991 6.34583 19.6729 6.34583 20.3825Z" fill="#888888"/>
<path d="M40.1788 16.8008C40.8839 16.8008 41.454 16.2271 41.454 15.5174V14.4454C41.454 13.8151 41.6077 13.347 41.9153 13.0413C42.2228 12.7355 42.6729 12.5845 43.2655 12.5845H55.5595V8.021H43.2655C42.4854 8.021 41.7878 8.11914 41.1727 8.31919C40.5576 8.51925 40.0138 8.7797 39.5412 9.10809C39.0687 9.43649 38.6674 9.81772 38.3373 10.248C38.0073 10.6821 37.7372 11.1351 37.5272 11.6069C37.3172 12.0787 37.1634 12.5581 37.0659 13.0375C36.9684 13.5169 36.9159 13.9736 36.9159 14.4077V16.797H40.1751L40.1788 16.8008Z" fill="#888888"/>
<path d="M41.9266 21.9568C41.6115 21.6398 41.454 21.183 41.454 20.5866V19.6845C41.454 18.9749 40.8839 18.4011 40.1788 18.4011H36.9197V20.5866C36.9197 21.7681 37.1335 22.7646 37.5573 23.5799C37.9811 24.3915 38.5099 25.0558 39.1437 25.5616C39.7775 26.0674 40.4676 26.4373 41.2102 26.66C41.9528 26.8827 42.6392 26.9922 43.2692 26.9922H55.5633V22.4287H43.303C42.6992 22.4287 42.2379 22.2701 41.9266 21.9531V21.9568Z" fill="#888888"/>
<path d="M88.965 21.9304C88.6162 21.5982 88.44 21.1491 88.44 20.5866V19.6845C88.44 18.9749 87.8699 18.4011 87.1648 18.4011H83.9056V20.5866C83.9056 21.7681 84.1157 22.7646 84.532 23.5799C84.952 24.3915 85.4808 25.0558 86.1184 25.5616C86.756 26.0712 87.4461 26.4373 88.1849 26.66C88.9238 26.8827 89.6176 26.9922 90.2702 26.9922H92.2917V22.4287H90.2702C89.7451 22.4287 89.3101 22.2626 88.9613 21.9266L88.965 21.9304Z" fill="#888888"/>
<path d="M88.44 15.5175V0H83.9056V16.8009H87.1648C87.8699 16.8009 88.44 16.2272 88.44 15.5175Z" fill="#888888"/>
<path d="M97.8575 16.8006C98.5626 16.8006 99.1327 16.2268 99.1327 15.5172V14.3433C99.1327 13.7809 99.3015 13.309 99.639 12.9316C99.9765 12.5503 100.453 12.3616 101.068 12.3616H109.248C109.78 12.3616 110.238 12.5315 110.617 12.8712C110.995 13.2109 111.183 13.679 111.183 14.2753C111.183 14.8378 111.014 15.3096 110.677 15.6871C110.339 16.0683 109.863 16.257 109.248 16.257H101.068V16.8044H115.001C115.001 16.8044 115.012 16.7968 115.016 16.793C115.331 15.8947 115.489 15.068 115.489 14.3093C115.489 13.1618 115.279 12.188 114.862 11.3878C114.442 10.5875 113.925 9.93829 113.302 9.44004C112.679 8.94178 112.004 8.58319 111.28 8.36049C110.553 8.13778 109.878 8.02832 109.248 8.02832H101.068C99.9278 8.02832 98.9602 8.2397 98.1651 8.65868C97.37 9.08144 96.7249 9.60235 96.2298 10.2289C95.7348 10.8555 95.3785 11.535 95.1572 12.2635C94.9359 12.9957 94.8271 13.6752 94.8271 14.3093V16.8044H97.8575V16.8006Z" fill="#888888"/>
<path d="M99.699 22.1344C99.3202 21.7947 99.1326 21.3228 99.1326 20.7113V19.6884C99.1326 18.9788 98.5626 18.405 97.8575 18.405H94.8271V20.7113C94.8271 21.8588 95.0371 22.8327 95.4534 23.6329C95.8735 24.4331 96.391 25.0824 97.0136 25.5806C97.6362 26.0789 98.3113 26.4375 99.0351 26.6602C99.7627 26.8829 100.438 26.9923 101.068 26.9923H109.248V22.6402H101.102C100.543 22.6402 100.074 22.4703 99.699 22.1306V22.1344Z" fill="#888888"/>
<path d="M101.068 19.6888V20.5909H109.248C110.388 20.5909 111.355 20.3795 112.151 19.9606C112.938 19.5453 113.58 19.0244 114.071 18.4092H102.343C101.638 18.4092 101.068 18.9829 101.068 19.6926V19.6888Z" fill="#888888"/>
<path d="M134.293 13.0677C134.631 13.3885 134.8 13.8377 134.8 14.4115V16.8008H138.059C138.764 16.8008 139.334 16.2271 139.334 15.5174V14.4115C139.334 13.6263 139.237 12.9243 139.038 12.3052C138.839 11.6862 138.576 11.1388 138.254 10.6632C137.928 10.1876 137.549 9.78375 137.121 9.45158C136.69 9.11942 136.24 8.84764 135.771 8.63626C135.302 8.42488 134.826 8.27012 134.35 8.17198C133.873 8.07384 133.42 8.021 132.988 8.021H124.808V12.5845H132.988C133.521 12.5845 133.96 12.7468 134.297 13.0677H134.293Z" fill="#888888"/>
<path d="M134.8 18.4053V20.5908C134.8 21.1419 134.638 21.5873 134.32 21.9232C134.001 22.2629 133.555 22.4328 132.984 22.4328H124.805C124.28 22.4328 123.845 22.2667 123.496 21.9308C123.147 21.5948 122.971 21.1494 122.971 20.587V19.6849C122.971 18.9752 122.401 18.4015 121.696 18.4015H118.436V20.587C118.436 21.3721 118.534 22.078 118.733 22.7008C118.931 23.3274 119.194 23.8785 119.528 24.3503C119.862 24.8221 120.24 25.2298 120.672 25.562C121.103 25.8941 121.553 26.1659 122.022 26.3773C122.491 26.5887 122.967 26.7434 123.443 26.8416C123.92 26.9397 124.373 26.9926 124.805 26.9926H132.984C133.765 26.9926 134.462 26.8944 135.077 26.6944C135.692 26.4943 136.236 26.2301 136.709 25.8941C137.181 25.5582 137.583 25.177 137.913 24.7429C138.243 24.3088 138.513 23.8558 138.723 23.384C138.933 22.9122 139.086 22.4328 139.184 21.9534C139.281 21.474 139.334 21.0173 139.334 20.5832V19.6811C139.334 18.9714 138.764 18.3977 138.059 18.3977H134.8V18.4053Z" fill="#888888"/>
<path d="M122.975 15.5175V0H118.44V16.8009H121.7C122.405 16.8009 122.975 16.2272 122.975 15.5175Z" fill="#888888"/>
<path d="M182.693 21.9304C182.344 21.5982 182.168 21.1491 182.168 20.5866V19.6845C182.168 18.9749 181.598 18.4011 180.893 18.4011H177.634V20.5866C177.634 21.7681 177.844 22.7646 178.26 23.5799C178.68 24.3915 179.209 25.0558 179.847 25.5616C180.484 26.0712 181.174 26.4373 181.913 26.66C182.652 26.8827 183.346 26.9922 183.998 26.9922H186.02V22.4287H183.998C183.473 22.4287 183.038 22.2626 182.689 21.9266L182.693 21.9304Z" fill="#888888"/>
<path d="M182.168 15.5175V0H177.634V16.8009H180.893C181.598 16.8009 182.168 16.2272 182.168 15.5175Z" fill="#888888"/>
</svg>
