<svg width="159" height="70" viewBox="0 0 159 70" fill="none" xmlns="http://www.w3.org/2000/svg">
<path d="M60.4002 61.041C60.1684 61.0635 60.0488 61.086 59.9316 61.086C58.0101 61.081 56.0887 61.0635 54.1647 61.0685C53.7411 61.0685 53.5093 60.9084 53.3124 60.5785C51.4408 57.4478 49.5568 54.3273 47.6751 51.2043C46.9175 49.9465 46.1499 48.6913 45.3973 47.4535C45.3175 47.461 45.2926 47.461 45.2727 47.4686C45.2527 47.4761 45.2278 47.4911 45.2253 47.5061C45.2104 47.5711 45.1955 47.6361 45.1955 47.7011C45.1905 52.1719 45.1855 56.6452 45.1805 61.116C45.1805 61.136 45.1681 61.1585 45.1605 61.1785C45.1531 61.1986 45.1431 61.2185 45.1132 61.2861H39.4062C39.1819 60.7034 39.0947 41.1774 39.3239 40.0847C39.5407 40.0697 39.775 40.0422 40.0117 40.0422C42.0803 40.0372 44.1488 40.0522 46.2147 40.0272C46.7581 40.0197 47.0122 40.2022 47.2589 40.6423C48.4053 42.6927 49.6116 44.7155 50.7879 46.7535C51.9991 48.8488 53.1978 50.9492 54.404 53.0471C54.5336 53.2746 54.6782 53.4946 54.8077 53.7021C54.9049 53.6771 54.9348 53.6771 54.9497 53.6647C54.9648 53.6522 54.9722 53.6272 54.9772 53.6047C54.9871 53.5396 54.9971 53.4721 54.9971 53.4072C55.0071 49.0013 55.0145 44.598 55.0221 40.1923C55.0221 40.1697 55.032 40.1498 55.0345 40.1272C55.5354 39.9522 59.6824 39.9247 60.6793 40.1097C60.5871 47.0559 60.4949 54.0173 60.4002 61.0385V61.041Z" fill="#888888"/>
<path d="M64.8162 31.7257C64.1956 32.0833 63.6074 32.4284 63.0143 32.7659C62.8299 32.8709 62.6455 32.9884 62.4436 33.0585C62.0573 33.1936 61.7384 33.0585 61.539 32.7034C61.3695 32.4033 61.4119 32.2233 61.8181 31.9958C63.3084 31.1656 64.253 29.9254 65.0255 28.5452C65.499 27.6975 65.9601 26.8423 66.4785 26.0172C67.1388 24.9695 67.9986 24.0719 69.0877 23.3642C70.2042 22.6391 71.4403 22.2115 72.8234 22.1991C73.621 22.1916 73.8727 22.399 74.0546 23.2042C73.7705 23.2843 73.4765 23.3618 73.1824 23.4468C70.0622 24.3494 68.1233 26.2572 67.4254 29.1628C67.2909 29.7279 67.3058 30.368 67.4479 30.9331C67.7619 32.1983 68.988 32.876 70.3836 32.6134C71.8665 32.3358 73.0852 31.6183 74.0621 30.588C75.2982 29.2853 75.8914 27.7375 75.996 26.0297C76.0459 25.2371 75.8689 24.4844 75.4253 23.7993C75.2409 23.5143 75.1686 23.2342 75.2783 22.9142C75.515 22.229 76.2128 22.0665 76.7237 22.6141C77.0178 22.9292 77.2945 23.2992 77.4215 23.6893C77.6359 24.3394 77.743 25.0195 77.8651 25.6947C77.91 25.9497 77.8726 26.2147 77.8726 26.6074C78.1118 26.4248 78.2589 26.3323 78.381 26.2173C79.5897 25.0945 80.796 23.9693 81.9969 22.8416C82.8518 22.039 83.9089 21.7489 85.1098 21.7964C85.9719 21.8314 86.5903 22.1915 86.9394 22.9091C87.1032 23.2492 87.2303 23.6068 87.4053 24.0244C87.8559 23.6593 88.2674 23.3268 88.6813 22.9967C89.2565 22.5366 89.8845 22.1465 90.6572 22.059C91.1557 22.0015 91.6815 21.9864 92.1705 22.0665C93.4385 22.274 94.1312 23.2342 93.8923 24.3594C93.6478 25.5071 92.4941 26.3048 91.3052 26.1347C90.6524 26.0422 90.1091 25.7746 89.7327 25.2646C89.6129 25.102 89.4835 24.9445 89.3668 24.7945C88.3649 25.1496 87.9206 25.9222 88.0684 27.0099C88.1803 27.8376 88.893 28.5077 89.8598 28.5977C91.3875 28.7402 92.7585 28.3676 93.8771 27.38C94.8918 26.4873 95.8682 25.5596 96.8877 24.672C97.4662 24.1694 98.0639 23.6718 98.7094 23.2467C99.9231 22.4466 101.297 22.0465 102.809 22.059C104.259 22.0715 105.319 22.6516 106.016 23.7993C106.087 23.9143 106.146 24.0368 106.216 24.1544C106.274 24.2494 106.338 24.3444 106.463 24.5344C106.627 24.3144 106.764 24.1519 106.879 23.9743C108.329 21.7464 109.802 19.5311 111.208 17.2806C111.674 16.533 112.22 16.1579 113.194 16.283C113.787 16.358 114.403 16.2979 115.046 16.2979C115.078 16.668 114.839 16.9056 114.682 17.1606C113.075 19.7661 111.46 22.3665 109.844 24.967C108.698 26.8173 107.547 28.6652 106.405 30.518C106.181 30.8831 105.967 31.2581 105.787 31.6457C105.653 31.9358 105.595 32.2559 105.875 32.5184C106.169 32.7934 106.5 32.6784 106.822 32.5534C107.836 32.1609 108.783 31.6683 109.596 30.9807C110.433 30.273 111.262 29.5579 112.095 28.8427C112.382 28.5977 112.676 28.3727 113.122 28.3526C113.266 28.6827 113.231 28.9852 113.007 29.2753C111.836 30.7855 110.532 32.1758 108.855 33.251C107.971 33.8186 107.013 34.2337 105.96 34.4663C104.464 34.7963 103.716 34.5237 102.891 33.3235C102.842 33.251 102.784 33.181 102.695 33.066C102.43 33.1785 102.171 33.286 101.914 33.4011C100.474 34.0362 98.9691 34.4362 97.3512 34.4163C95.0285 34.3862 93.6206 33.1685 93.4936 31.0631C93.4712 30.6706 93.4912 30.273 93.4912 29.7904C92.7338 29.8954 92.073 30.0054 91.4098 30.0729C90.8793 30.128 90.3432 30.1705 89.8126 30.1505C88.5494 30.103 87.597 29.5504 86.9538 28.5652C86.7821 28.3027 86.6278 28.0326 86.4409 27.7225C86.3306 27.8551 86.2491 27.935 86.194 28.0276C85.2472 29.6254 84.3052 31.2232 83.36 32.821C83.2809 32.9585 83.2105 33.0985 83.1314 33.2361C82.4603 34.3687 81.8027 34.6713 80.3973 34.5263C79.9187 34.4763 79.4327 34.4812 78.9243 34.4588C78.852 34.1812 79.0738 34.0061 79.2009 33.8161C80.9278 31.1957 82.6081 28.5527 84.0607 25.7972C84.1877 25.5572 84.3299 25.3221 84.4122 25.0695C84.5992 24.4994 84.3299 24.1269 83.6796 24.1419C83.2857 24.1519 82.8622 24.2644 82.5106 24.4319C81.7731 24.787 81.1651 25.2996 80.6466 25.8972C79.2732 27.4775 77.9 29.0578 76.5194 30.6331C75.7144 31.5532 74.8721 32.4484 73.8029 33.121C73.0877 33.5711 72.345 34.0212 71.5475 34.3262C69.2049 35.2264 66.9818 34.6063 65.5114 32.7159C65.2747 32.4109 65.0678 32.0883 64.8162 31.7308V31.7257ZM96.5186 30.348C96.5538 30.6606 96.5689 30.8806 96.6089 31.0981C96.6409 31.2707 96.6912 31.4457 96.7607 31.6083C97.0196 32.2133 97.8825 32.7084 98.5105 32.5259C99.1505 32.3409 99.8113 32.1158 100.359 31.7733C101.441 31.0956 102.388 30.2655 103.178 29.2978C103.824 28.5077 104.294 27.6425 104.529 26.6798C104.661 26.1423 104.78 25.5997 104.616 25.042C104.421 24.3769 103.938 23.9743 103.19 23.8993C102.47 23.8269 101.79 23.9568 101.159 24.2869C98.9491 25.4346 97.4414 27.09 96.7479 29.3328C96.6385 29.6904 96.5809 30.0629 96.5162 30.3455L96.5186 30.348Z" fill="#888888"/>
<path d="M88.3425 61.2485V56.7651C88.6213 56.7551 88.9002 56.7376 89.1822 56.7376C92.7585 56.7376 96.3348 56.7427 99.9087 56.7427C100.225 56.7427 100.542 56.7476 100.858 56.7326C102.061 56.6776 102.989 55.9025 103.078 54.8998C103.181 53.7271 102.254 52.9995 101.219 52.7544C100.873 52.6719 100.497 52.6669 100.132 52.6669C97.5781 52.6619 95.0237 52.6319 92.4717 52.6794C91.1829 52.7044 90.1514 52.2543 89.2398 51.5192C87.9238 50.4565 87.2503 49.0638 87.0441 47.506C86.7996 45.6557 87.1208 43.8878 88.2722 42.295C88.746 41.6399 89.3292 41.0848 90.0419 40.6422C90.7642 40.1946 91.5297 39.9721 92.4293 39.9771C96.9301 40.0071 101.428 39.9946 105.929 39.9971C106.216 39.9971 106.5 39.9971 106.837 39.9971V44.493C106.528 44.5004 106.246 44.5154 105.962 44.5154C102.119 44.5154 98.2756 44.5154 94.4308 44.5205C94.0689 44.5205 93.6981 44.5429 93.349 44.623C92.3375 44.8505 91.6767 45.6232 91.6567 46.5458C91.6367 47.4535 92.2871 48.2486 93.3114 48.4887C93.7053 48.5812 94.1288 48.6062 94.5379 48.6062C97.3839 48.6187 100.23 48.6461 103.076 48.6062C104.865 48.5812 106.154 49.3063 107.093 50.6141C108.26 52.2393 108.583 54.0472 108.387 55.9525C108.287 56.9077 108.058 57.8304 107.55 58.6805C106.929 59.7207 106.079 60.5633 104.862 61.0209C104.359 61.211 103.786 61.341 103.245 61.341C98.5025 61.346 93.7581 61.316 89.0152 61.291C88.8035 61.291 88.5918 61.261 88.3401 61.2434L88.3425 61.2485Z" fill="#888888"/>
<path d="M96.7334 10.257C96.6959 10.9896 96.3091 11.4522 95.7291 11.8498C93.9921 13.04 92.0329 13.6926 89.8972 13.9576C86.9465 14.3227 84.0677 13.9326 81.2417 13.2051C78.9042 12.605 76.594 11.9098 74.2713 11.2572C74.042 11.1922 73.8128 11.1271 73.6682 11.0872C73.4838 11.3072 73.3791 11.5297 73.1922 11.6373C70.2963 13.3501 68.1182 15.678 66.2839 18.301C66.1319 18.5185 66.0172 18.7535 65.8802 18.9911C66.3986 19.1511 69.4615 18.8861 70.887 18.5785C70.9268 18.3535 70.9692 18.0984 71.019 17.8434C71.1137 17.3658 71.1611 16.8732 71.3256 16.4131C71.657 15.488 72.6614 15.0029 73.6333 15.2404C74.4433 15.4404 74.8769 16.0481 74.7299 16.8032C74.5529 17.7033 74.0121 18.3885 73.1922 18.8986C72.933 19.0611 72.6638 19.2061 72.3498 19.3887C72.7112 19.7262 73.0526 20.0438 73.404 20.3713C73.1399 20.6714 72.8732 20.6739 72.6315 20.5564C72.3374 20.4114 72.0458 20.2388 71.8091 20.0263C71.5025 19.7512 71.1711 19.6487 70.7549 19.6987C69.115 19.8938 67.4776 20.0988 65.8328 20.2613C65.1351 20.3288 64.6815 20.6339 64.3027 21.1464C62.4061 23.7194 60.5046 26.2924 58.5707 28.8428C57.8256 29.8255 57.033 30.7832 56.1782 31.6884C54.9994 32.9336 53.539 33.8388 51.7994 34.3414C49.883 34.8964 47.9715 34.9139 46.0725 34.2863C43.5006 33.4337 42.11 31.7409 41.8283 29.2854C41.6016 27.2926 42.3442 25.6348 43.9841 24.3021C44.9036 23.5544 45.9355 22.9868 47.1192 22.6568C47.5104 22.5468 47.8743 22.5292 48.2058 22.7893C48.136 23.1793 47.817 23.3394 47.508 23.5219C46.07 24.3696 45.1479 25.5648 44.799 27.0826C44.2906 29.3079 46.2669 31.2608 48.7391 31.0533C50.4338 30.9107 51.9441 30.3557 53.3147 29.458C54.7028 28.5478 55.934 27.4801 57.1053 26.3499C58.78 24.7371 60.2678 22.9868 61.6908 21.189C61.813 21.0339 61.9027 20.8589 62.0498 20.6239C60.1183 20.6014 58.4286 21.0815 56.8063 21.8541C56.5845 21.4165 56.6667 21.1115 57.0156 20.9139C57.4841 20.6464 57.9551 20.3338 58.4735 20.1938C59.59 19.8963 60.7314 19.6462 61.8803 19.4737C62.745 19.3437 63.3307 18.9736 63.8192 18.3285C65.5836 16.0005 67.6397 13.9127 70.0969 12.1673C70.5954 11.8148 71.1262 11.4997 71.6421 11.1672C71.814 11.0547 71.9835 10.9422 72.2278 10.7821C72.0433 10.7121 71.9412 10.6571 71.834 10.6371C69.925 10.302 68.0259 9.89444 66.102 9.6569C63.0167 9.27682 59.9788 9.55934 57.0555 10.5696C56.3128 10.8246 55.59 11.1747 54.9321 11.5822C53.5789 12.4174 52.8163 13.6426 52.4873 15.0804C52.1608 16.5056 53.4045 17.5683 55.0442 17.2708C56.4349 17.0182 57.661 16.4481 58.6754 15.538C58.9695 15.2754 59.2136 14.9678 59.4978 14.6953C59.7071 14.4953 59.9438 14.3152 60.1956 14.1027C60.4722 14.4178 60.5221 14.6903 60.4174 14.9729C60.2554 15.4129 60.1108 15.8655 59.8716 16.2706C58.9071 17.8834 57.4766 19.0436 55.6225 19.7637C54.8773 20.0537 54.0898 20.2013 53.2723 20.1288C51.0568 19.9363 49.4693 18.421 49.3746 16.3981C49.2973 14.6903 49.9602 13.2275 51.2612 12.0123C52.7066 10.6596 54.5035 9.83939 56.4723 9.32683C59.281 8.59671 62.1544 8.36165 65.0678 8.45921C68.2378 8.56667 71.353 9.05925 74.4732 9.52435C78.7996 10.167 83.1513 10.5971 87.5394 10.6171C90.0738 10.627 92.5986 10.5245 95.0907 10.0545C95.654 9.94941 96.1949 9.96443 96.7254 10.257H96.7334ZM72.5418 18.541C72.8707 18.131 73.1623 17.7584 73.4639 17.3908C73.7729 17.0157 73.8177 16.6356 73.5361 16.2381C72.7511 16.1931 72.4146 16.3856 72.153 17.0182C71.8988 17.6333 72.0059 18.1509 72.5418 18.541Z" fill="#888888"/>
<path d="M151.267 51.977C151.267 52.8846 150.913 54.3275 150.253 55.6977C148.802 58.7057 146.215 60.4411 142.728 61.1012C140.924 61.4412 139.1 61.4563 137.301 61.0687C133.5 60.256 131.013 58.0856 129.774 54.7676C128.553 51.4969 128.758 48.2513 130.545 45.1858C132.466 41.8902 135.531 40.1474 139.656 40.0073C140.827 39.9674 141.984 40.0699 143.12 40.3549C146.028 41.0801 148.139 42.7178 149.587 45.0833C150.783 47.0361 151.342 49.1465 151.267 51.9795V51.977ZM139.548 43.8455C137.902 43.8655 136.279 44.7707 135.2 46.481C134.29 47.9238 133.976 49.5015 134.061 51.1468C134.136 52.6072 134.529 53.9873 135.412 55.2276C136.682 57.0154 138.864 57.8531 141.154 57.4455C143.048 57.108 144.318 56.0552 145.171 54.54C146.086 52.9122 146.318 51.1844 146.033 49.3791C145.826 48.0588 145.368 46.8436 144.453 45.7909C143.342 44.5107 141.886 43.8655 139.551 43.8455H139.548Z" fill="#888888"/>
<path d="M7.88013 39.9598C8.19916 39.9598 8.48576 39.9598 8.7698 39.9598C12.5405 39.9549 16.3111 39.9974 20.0793 39.9299C22.8431 39.8799 25.8088 41.4452 27.0349 44.1832C27.9894 46.316 27.9869 48.4514 26.8106 50.5368C26.0854 51.822 24.9913 52.7622 23.5583 53.3773C22.6014 53.7874 21.6144 53.9974 20.5328 53.9724C18.2725 53.9199 16.0096 53.9574 13.7467 53.9574C13.48 53.9574 13.2159 53.9574 12.847 53.9574C12.7772 55.2076 12.8246 56.4179 12.8171 57.6255C12.8071 58.8133 12.8171 60.001 12.8171 61.2262H7.93994C7.78792 60.7462 7.72064 41.3976 7.88013 39.9649V39.9598ZM13.0888 49.6491C13.2407 49.6767 13.3106 49.7017 13.3803 49.7017C15.2794 49.7017 17.1759 49.7241 19.0724 49.6741C19.6655 49.6592 20.2812 49.5116 20.8319 49.3041C21.9833 48.8715 22.6088 47.6663 22.3422 46.5635C22.0008 45.1508 20.8394 44.2581 19.2294 44.2331C17.3329 44.2056 15.4339 44.2206 13.5349 44.2231C13.3977 44.2231 13.2607 44.2656 13.0863 44.2932V49.6466L13.0888 49.6491Z" fill="#888888"/>
<path d="M86.3608 61.1936H80.7855C80.2078 59.5058 79.627 57.803 79.0438 56.0977C78.822 56.0827 78.655 56.0602 78.4881 56.0602C75.9809 56.0602 73.4763 56.0702 70.9692 56.0477C70.4584 56.0427 70.1817 56.1727 69.9898 56.6252C69.4316 57.9455 68.7961 59.2408 68.2378 60.561C68.0584 60.9861 67.8117 61.1211 67.3207 61.1086C66.0073 61.0761 64.6939 61.0986 63.3806 61.0961C63.1887 61.0961 62.9968 61.0761 62.8074 61.0661C62.8298 60.5185 70.6876 43.0528 72.2577 40.0398H77.0725C80.1479 47.0411 83.228 54.0548 86.3632 61.1886L86.3608 61.1936ZM74.6178 45.8833C74.2165 46.3785 72.1929 51.3568 72.138 51.9119C73.2147 52.0445 76.3174 52.0145 76.8806 51.8469C76.133 49.8741 75.3828 47.9012 74.6178 45.8833Z" fill="#888888"/>
<path d="M128.095 45.0505C127.848 45.063 127.634 45.083 127.42 45.0855C124.746 45.1155 122.069 45.168 119.395 45.1605C118.183 45.158 117.366 45.6631 116.76 46.5483C116.128 47.4734 115.868 48.5137 115.778 49.5763C115.644 51.1541 115.789 52.7168 116.397 54.2197C116.556 54.6122 116.74 55.0023 116.965 55.3649C117.575 56.345 118.45 56.8651 119.756 56.8376C122.236 56.7876 124.718 56.8201 127.198 56.8176C127.484 56.8176 127.768 56.8176 128.117 56.8176V61.306C127.933 61.3259 127.748 61.366 127.564 61.366C124.207 61.3684 120.853 61.401 117.495 61.3534C115.367 61.3235 113.68 60.4108 112.384 58.9005C111.302 57.6403 110.632 56.1975 110.291 54.6372C109.476 50.909 109.763 47.2909 111.652 43.8403C112.122 42.9776 112.743 42.2175 113.503 41.5549C114.654 40.5497 116.003 39.9821 117.63 39.9896C120.912 40.002 124.197 39.9946 127.479 39.9946C127.671 39.9946 127.863 39.9946 128.04 39.9946C128.209 40.4921 128.249 44.1078 128.095 45.053V45.0505Z" fill="#888888"/>
<path d="M29.6146 61.2836V40.1148C30.1304 39.9647 33.8811 39.9197 35.0549 40.0448C35.1945 40.4998 35.2444 60.2084 35.1073 61.1711C34.6088 61.3236 30.5416 61.4211 29.6146 61.286V61.2836Z" fill="#888888"/>
</svg>
