<svg width="70" height="56" viewBox="0 0 70 56" fill="none" xmlns="http://www.w3.org/2000/svg">
<path d="M6.16181 0H0V39.5081C0 39.5081 2.71845 56 19.754 56C36.7896 56 39.5081 39.5081 39.5081 39.5081V32.4401H50.0194C50.0194 32.4401 58.356 31.7152 58.356 38.6019C58.356 45.4887 52.1942 46.0324 52.1942 46.0324H41.3204C41.3204 46.0324 39.3269 49.2945 37.877 50.9256C36.4272 52.5566 32.6214 56 32.6214 56H54.9126C54.9126 56 69.5922 52.9191 69.5922 41.1392C69.5922 29.3592 61.7994 27.1845 61.7994 27.1845C61.7994 27.1845 70.1359 23.0162 68.1424 12.1424C66.1489 1.26861 54.9126 0 54.9126 0H28.8155V37.877C28.8155 37.877 28.8155 46.0324 19.754 46.0324C10.6926 46.0324 10.8738 37.877 10.8738 37.877V4.71197C10.8738 2.10962 8.76416 0 6.16181 0Z" fill="#888888"/>
<path d="M57.6311 14.8609C57.2686 9.24275 51.8317 9.06152 51.8317 9.06152L39.5081 9.06152V21.7476H51.8317C51.8317 21.7476 57.9936 20.479 57.6311 14.8609Z" fill="white"/>
</svg>
