<svg width="63" height="50" viewBox="0 0 63 50" fill="none" xmlns="http://www.w3.org/2000/svg">
<path d="M52.9069 2.98908L59.2154 5.77788L59.2198 7.21787L52.9284 10.054L52.9238 8.52406L58.4787 6.20312L58.4805 6.77912L52.9115 4.48307L52.9069 2.98908ZM54.2612 4.38896L55.3693 4.77259L55.3792 8.01257L54.2734 8.41194L54.2612 4.38896ZM52.8314 13.6621C52.8299 13.1641 52.9065 12.7049 53.0612 12.2844C53.222 11.8699 53.4488 11.5062 53.7419 11.1933C54.035 10.8864 54.3792 10.6454 54.7747 10.4702C55.1702 10.301 55.6049 10.2156 56.0789 10.2142C56.5529 10.2127 56.9882 10.2954 57.3847 10.4622C57.7812 10.635 58.127 10.8769 58.4219 11.1881C58.7169 11.4992 58.943 11.8645 59.1002 12.284C59.2635 12.7035 59.3459 13.1652 59.3475 13.6692C59.3492 14.2272 59.2577 14.7285 59.073 15.1731C58.8884 15.6237 58.6196 16.0025 58.2665 16.3095L57.3997 15.3762C57.639 15.1475 57.8152 14.8979 57.9284 14.6276C58.0476 14.3572 58.1067 14.063 58.1057 13.745C58.1048 13.439 58.0559 13.1602 57.9591 12.9085C57.8624 12.6568 57.7237 12.4382 57.5431 12.2527C57.3626 12.0733 57.1492 11.9329 56.9029 11.8317C56.6566 11.7364 56.3834 11.6893 56.0834 11.6902C55.7894 11.6911 55.5196 11.7399 55.2739 11.8366C55.0282 11.9394 54.8126 12.0811 54.6272 12.2616C54.4477 12.4482 54.3104 12.6646 54.2151 12.9109C54.1199 13.1632 54.0727 13.4393 54.0737 13.7393C54.0745 14.0273 54.1204 14.3062 54.2112 14.5759C54.308 14.8516 54.4679 15.1181 54.6906 15.3754L53.6402 16.2066C53.3811 15.8654 53.1819 15.467 53.0425 15.0115C52.9032 14.5619 52.8328 14.1121 52.8314 13.6621ZM53.8251 14.8741L56.1921 14.8669L56.1962 16.1989L53.6402 16.2066L53.8251 14.8741ZM56.7174 18.8926L56.7266 21.9256L55.5926 21.9291L55.5834 18.8961L56.7174 18.8926ZM54.1257 19.0085L54.1362 22.4375L52.9662 22.4411L52.9513 17.5631L59.2513 17.5439L59.2658 22.3049L58.0958 22.3085L58.0857 18.9965L54.1257 19.0085ZM52.9697 23.6012L59.2697 23.582L59.2733 24.788L54.7487 28.5188L54.7469 27.9338L59.2829 27.92L59.2873 29.3599L52.9873 29.3791L52.9836 28.1821L57.5083 24.4423L57.5101 25.0273L52.9741 25.0412L52.9697 23.6012ZM52.893 33.885C52.8915 33.399 52.9682 32.9458 53.1229 32.5253C53.2836 32.1108 53.5105 31.7501 53.8036 31.4432C54.0967 31.1363 54.4409 30.8953 54.8364 30.7201C55.2319 30.5509 55.6666 30.4655 56.1406 30.4641C56.6146 30.4626 57.0499 30.5453 57.4464 30.7121C57.8429 30.8849 58.1886 31.1239 58.4836 31.429C58.7785 31.7401 59.0046 32.1024 59.1619 32.5159C59.3251 32.9294 59.4075 33.3822 59.409 33.8742C59.4107 34.4201 59.3162 34.9124 59.1255 35.351C58.9409 35.7956 58.666 36.1684 58.3009 36.4695L57.4341 35.5362C57.6794 35.3194 57.8617 35.0789 57.9809 34.8145C58.1061 34.5501 58.1682 34.2619 58.1672 33.9499C58.1663 33.6559 58.1175 33.3861 58.0208 33.1404C57.924 32.8947 57.7854 32.6821 57.6048 32.5026C57.4243 32.3232 57.2109 32.1828 56.9645 32.0816C56.7183 31.9863 56.4451 31.9392 56.1451 31.9401C55.8451 31.941 55.5723 31.9898 55.3266 32.0866C55.0809 32.1893 54.8683 32.331 54.6888 32.5115C54.5094 32.6921 54.372 32.9055 54.2768 33.1518C54.1815 33.3981 54.1344 33.6682 54.1353 33.9622C54.1362 34.2742 54.1971 34.562 54.3179 34.8257C54.4447 35.0893 54.6344 35.3287 54.8871 35.5439L54.0259 36.4826C53.659 36.1837 53.3789 35.8125 53.1855 35.3691C52.9922 34.9317 52.8947 34.437 52.893 33.885ZM53.0119 37.4702L59.3119 37.451L59.3164 38.909L53.0164 38.9282L53.0119 37.4702ZM53.0184 39.5954L59.3269 42.3842L59.3313 43.8241L53.0399 46.6603L53.0353 45.1303L58.5902 42.8094L58.592 43.3854L53.023 41.0893L53.0184 39.5954ZM54.3727 40.9952L55.4809 41.3789L55.4907 44.6188L54.3849 45.0182L54.3727 40.9952Z" fill="#1D1A1A"/>
<path d="M11.0123 35.3548V11.5548H20.8043C22.9123 11.5548 24.7143 11.8948 26.2103 12.5748C27.729 13.2548 28.8963 14.2295 29.7123 15.4988C30.5283 16.7681 30.9363 18.2755 30.9363 20.0208C30.9363 21.7661 30.5283 23.2735 29.7123 24.5428C28.8963 25.7895 27.729 26.7528 26.2103 27.4328C24.7143 28.0901 22.9123 28.4188 20.8043 28.4188H13.4603L15.4323 26.4128V35.3548H11.0123ZM26.5843 35.3548L20.5663 26.7188H25.2923L31.3443 35.3548H26.5843ZM15.4323 26.8888L13.4603 24.7808H20.6003C22.5497 24.7808 24.0117 24.3615 24.9863 23.5228C25.9837 22.6841 26.4823 21.5168 26.4823 20.0208C26.4823 18.5021 25.9837 17.3348 24.9863 16.5188C24.0117 15.7028 22.5497 15.2948 20.6003 15.2948H13.4603L15.4323 13.1188V26.8888ZM35.7455 27.4668L34.9295 11.5548H39.9615L39.1115 27.4668H35.7455ZM37.4455 35.5928C36.6522 35.5928 35.9948 35.3321 35.4735 34.8108C34.9522 34.2895 34.6915 33.6661 34.6915 32.9408C34.6915 32.2155 34.9522 31.6035 35.4735 31.1048C35.9948 30.5835 36.6522 30.3228 37.4455 30.3228C38.2388 30.3228 38.8848 30.5835 39.3835 31.1048C39.8822 31.6035 40.1315 32.2155 40.1315 32.9408C40.1315 33.6661 39.8822 34.2895 39.3835 34.8108C38.8848 35.3321 38.2388 35.5928 37.4455 35.5928Z" fill="#1D1A1A"/>
<rect x="1" y="1" width="48" height="48" stroke="black" stroke-width="2"/>
</svg>
